<svg xmlns="http://www.w3.org/2000/svg" xmlns:xlink="http://www.w3.org/1999/xlink" width="500" zoomAndPan="magnify" viewBox="0 0 375 374.999991" height="500" preserveAspectRatio="xMidYMid meet" version="1.0"><defs><g/><clipPath id="5361be99fb"><path d="M 133.199219 84.234375 L 241.796875 84.234375 L 241.796875 139.734375 L 133.199219 139.734375 Z M 133.199219 84.234375 " clip-rule="nonzero"/></clipPath><clipPath id="ad884f9dc6"><path d="M 141.449219 251.773438 L 233.699219 251.773438 L 233.699219 257.773438 L 141.449219 257.773438 Z M 141.449219 251.773438 " clip-rule="nonzero"/></clipPath><clipPath id="e33407fc87"><path d="M 191.871094 198.199219 L 224.855469 198.199219 L 224.855469 252.933594 L 191.871094 252.933594 Z M 191.871094 198.199219 " clip-rule="nonzero"/></clipPath><clipPath id="c1e953a4d6"><path d="M 151.945312 198.1875 L 178.945312 198.1875 L 178.945312 236.4375 L 151.945312 236.4375 Z M 151.945312 198.1875 " clip-rule="nonzero"/></clipPath></defs><rect x="-37.5" width="450" fill="#ffffff" y="-37.499999" height="449.999989" fill-opacity="1"/><rect x="-37.5" width="450" fill="#ffffff" y="-37.499999" height="449.999989" fill-opacity="1"/><rect x="-37.5" width="450" fill="#ffffff" y="-37.499999" height="449.999989" fill-opacity="1"/><path fill="#2b2b2b" d="M 148.105469 95.953125 L 161.421875 95.953125 L 161.421875 103.546875 L 148.105469 114.789062 Z M 148.105469 95.953125 " fill-opacity="1" fill-rule="nonzero"/><g clip-path="url(#5361be99fb)"><path fill="#2b2b2b" d="M 148.105469 117.40625 L 161.421875 106.164062 L 187.390625 84.230469 L 187.421875 84.265625 L 187.449219 84.230469 L 241.828125 130.152344 L 233.785156 139.597656 L 187.421875 100.449219 L 141.058594 139.597656 L 133.011719 130.152344 Z M 148.105469 117.40625 " fill-opacity="1" fill-rule="nonzero"/></g><g clip-path="url(#ad884f9dc6)"><path fill="#2b2b2b" d="M 141.449219 251.773438 L 233.699219 251.773438 L 233.699219 257.773438 L 141.449219 257.773438 Z M 141.449219 251.773438 " fill-opacity="1" fill-rule="nonzero"/></g><g clip-path="url(#e33407fc87)"><path fill="#2b2b2b" d="M 193.414062 200.359375 C 193.414062 200.007812 193.695312 199.726562 194.046875 199.726562 L 222.675781 199.726562 C 223.023438 199.726562 223.308594 200.007812 223.308594 200.359375 L 223.308594 250.773438 C 223.308594 251.125 223.023438 251.40625 222.675781 251.40625 L 194.046875 251.40625 C 193.695312 251.40625 193.414062 251.125 193.414062 250.773438 Z M 191.871094 252.933594 L 224.855469 252.933594 L 224.855469 198.199219 L 191.871094 198.199219 L 191.871094 252.933594 " fill-opacity="1" fill-rule="nonzero"/></g><path fill="#2b2b2b" d="M 208.929688 226.113281 L 206.867188 226.097656 C 206.699219 226.996094 206.117188 227.648438 205.4375 227.632812 C 204.644531 227.613281 204.007812 226.683594 204.007812 225.5625 C 204.007812 224.441406 204.644531 223.515625 205.4375 223.496094 C 206.117188 223.480469 206.699219 224.128906 206.867188 225.027344 L 208.929688 225.015625 C 209.15625 225.011719 209.335938 225.257812 209.335938 225.5625 C 209.335938 225.867188 209.15625 226.113281 208.929688 226.113281 Z M 222.042969 200.992188 L 203.273438 205.691406 L 203.273438 245.441406 L 222.042969 250.140625 L 222.042969 200.992188 " fill-opacity="1" fill-rule="nonzero"/><path fill="#2b2b2b" d="M 206.070312 225.035156 L 205.6875 225.039062 C 205.5 225.039062 205.355469 225.273438 205.355469 225.5625 C 205.355469 225.851562 205.5 226.089844 205.6875 226.089844 L 206.070312 226.09375 C 205.957031 226.386719 205.753906 226.585938 205.519531 226.578125 C 205.164062 226.574219 204.878906 226.117188 204.878906 225.5625 C 204.878906 225.007812 205.164062 224.550781 205.519531 224.546875 C 205.753906 224.542969 205.957031 224.742188 206.070312 225.035156 " fill-opacity="1" fill-rule="nonzero"/><g clip-path="url(#c1e953a4d6)"><path fill="#1d1d1b" d="M 151.945312 198.335938 L 151.945312 236.292969 L 178.945312 236.292969 L 178.945312 198.335938 Z M 177.71875 217.28125 L 165.753906 217.28125 L 165.753906 199.570312 L 177.71875 199.570312 Z M 165.140625 199.570312 L 165.140625 217.28125 L 153.171875 217.28125 L 153.171875 199.570312 Z M 153.171875 235.058594 L 153.171875 217.898438 L 165.140625 217.898438 L 165.140625 235.058594 Z M 165.753906 235.058594 L 165.753906 217.898438 L 177.71875 217.898438 L 177.71875 235.058594 Z M 165.753906 235.058594 " fill-opacity="1" fill-rule="nonzero"/></g><path fill="#1d1d1b" d="M 156.636719 205.304688 L 156.992188 205.210938 L 158.054688 209.203125 L 157.699219 209.300781 Z M 156.636719 205.304688 " fill-opacity="1" fill-rule="nonzero"/><path fill="#1d1d1b" d="M 158.050781 205.3125 L 158.40625 205.21875 L 159.46875 209.210938 L 159.113281 209.308594 Z M 158.050781 205.3125 " fill-opacity="1" fill-rule="nonzero"/><path fill="#1d1d1b" d="M 170.8125 226.785156 L 171.167969 226.691406 L 172.246094 230.746094 L 171.890625 230.839844 Z M 170.8125 226.785156 " fill-opacity="1" fill-rule="nonzero"/><path fill="#1d1d1b" d="M 172.285156 226.777344 L 172.640625 226.683594 L 173.714844 230.738281 L 173.359375 230.832031 Z M 172.285156 226.777344 " fill-opacity="1" fill-rule="nonzero"/><g fill="#2b2b2b" fill-opacity="1"><g transform="translate(145.159624, 159.925537)"><g><path d="M 3.921875 -14.84375 C 5.046875 -14.84375 5.875 -14.507812 6.40625 -13.84375 C 6.9375 -13.1875 7.203125 -12.296875 7.203125 -11.171875 L 7.203125 -10.765625 L 5.65625 -10.765625 L 5.65625 -11.25 C 5.65625 -11.925781 5.519531 -12.445312 5.25 -12.8125 C 4.976562 -13.175781 4.550781 -13.359375 3.96875 -13.359375 C 3.382812 -13.359375 2.957031 -13.175781 2.6875 -12.8125 C 2.414062 -12.445312 2.28125 -11.9375 2.28125 -11.28125 C 2.28125 -10.726562 2.40625 -10.25 2.65625 -9.84375 C 2.90625 -9.4375 3.207031 -9.0625 3.5625 -8.71875 C 3.925781 -8.382812 4.320312 -8.050781 4.75 -7.71875 C 5.175781 -7.382812 5.570312 -7.019531 5.9375 -6.625 C 6.300781 -6.238281 6.601562 -5.796875 6.84375 -5.296875 C 7.09375 -4.804688 7.21875 -4.21875 7.21875 -3.53125 C 7.21875 -2.40625 6.945312 -1.507812 6.40625 -0.84375 C 5.875 -0.1875 5.039062 0.140625 3.90625 0.140625 C 2.769531 0.140625 1.9375 -0.1875 1.40625 -0.84375 C 0.875 -1.507812 0.609375 -2.40625 0.609375 -3.53125 L 0.609375 -4.375 L 2.140625 -4.375 L 2.140625 -3.4375 C 2.140625 -2.769531 2.28125 -2.253906 2.5625 -1.890625 C 2.84375 -1.523438 3.273438 -1.34375 3.859375 -1.34375 C 4.453125 -1.34375 4.890625 -1.523438 5.171875 -1.890625 C 5.453125 -2.253906 5.59375 -2.769531 5.59375 -3.4375 C 5.59375 -3.988281 5.46875 -4.460938 5.21875 -4.859375 C 4.96875 -5.253906 4.660156 -5.625 4.296875 -5.96875 C 3.941406 -6.3125 3.550781 -6.644531 3.125 -6.96875 C 2.707031 -7.300781 2.316406 -7.664062 1.953125 -8.0625 C 1.585938 -8.457031 1.28125 -8.898438 1.03125 -9.390625 C 0.789062 -9.890625 0.671875 -10.484375 0.671875 -11.171875 C 0.671875 -12.304688 0.9375 -13.203125 1.46875 -13.859375 C 2 -14.515625 2.816406 -14.84375 3.921875 -14.84375 Z M 3.921875 -14.84375 "/></g></g></g><g fill="#2b2b2b" fill-opacity="1"><g transform="translate(160.090683, 159.925537)"><g><path d="M 4.078125 -14.84375 C 5.210938 -14.84375 6.054688 -14.507812 6.609375 -13.84375 C 7.171875 -13.1875 7.453125 -12.289062 7.453125 -11.15625 L 7.453125 -3.546875 C 7.453125 -2.609375 7.265625 -1.847656 6.890625 -1.265625 C 6.972656 -1.078125 7.082031 -0.953125 7.21875 -0.890625 C 7.363281 -0.828125 7.554688 -0.796875 7.796875 -0.796875 L 8 -0.796875 L 8 0.65625 L 7.734375 0.65625 C 6.835938 0.65625 6.210938 0.335938 5.859375 -0.296875 C 5.617188 -0.148438 5.351562 -0.0390625 5.0625 0.03125 C 4.769531 0.101562 4.441406 0.140625 4.078125 0.140625 C 2.941406 0.140625 2.097656 -0.191406 1.546875 -0.859375 C 0.992188 -1.535156 0.71875 -2.429688 0.71875 -3.546875 L 0.71875 -11.15625 C 0.71875 -12.289062 0.992188 -13.1875 1.546875 -13.84375 C 2.097656 -14.507812 2.941406 -14.84375 4.078125 -14.84375 Z M 4.078125 -13.359375 C 3.484375 -13.359375 3.039062 -13.171875 2.75 -12.796875 C 2.46875 -12.429688 2.328125 -11.910156 2.328125 -11.234375 L 2.328125 -3.46875 C 2.328125 -2.789062 2.46875 -2.265625 2.75 -1.890625 C 3.039062 -1.523438 3.484375 -1.34375 4.078125 -1.34375 C 4.679688 -1.34375 5.117188 -1.523438 5.390625 -1.890625 C 5.671875 -2.265625 5.8125 -2.789062 5.8125 -3.46875 L 5.8125 -11.234375 C 5.8125 -11.910156 5.671875 -12.429688 5.390625 -12.796875 C 5.117188 -13.171875 4.679688 -13.359375 4.078125 -13.359375 Z M 4.078125 -13.359375 "/></g></g></g><g fill="#2b2b2b" fill-opacity="1"><g transform="translate(175.65174, 159.925537)"><g><path d="M 2.390625 -3.46875 C 2.390625 -2.789062 2.523438 -2.265625 2.796875 -1.890625 C 3.078125 -1.523438 3.515625 -1.34375 4.109375 -1.34375 C 4.703125 -1.34375 5.132812 -1.523438 5.40625 -1.890625 C 5.675781 -2.265625 5.8125 -2.789062 5.8125 -3.46875 L 5.8125 -14.703125 L 7.34375 -14.703125 L 7.34375 -3.546875 C 7.34375 -2.429688 7.078125 -1.53125 6.546875 -0.84375 C 6.015625 -0.164062 5.179688 0.171875 4.046875 0.171875 C 2.929688 0.171875 2.109375 -0.164062 1.578125 -0.84375 C 1.046875 -1.53125 0.78125 -2.429688 0.78125 -3.546875 L 0.78125 -14.703125 L 2.390625 -14.703125 Z M 2.390625 -3.46875 "/></g></g></g><g fill="#2b2b2b" fill-opacity="1"><g transform="translate(190.897798, 159.925537)"><g><path d="M 2.5 -2.96875 L 1.9375 0 L 0.421875 0 L 3.234375 -14.703125 L 5.609375 -14.703125 L 8.421875 0 L 6.78125 0 L 6.21875 -2.96875 Z M 2.703125 -4.375 L 5.984375 -4.375 L 4.328125 -12.859375 Z M 2.703125 -4.375 "/></g></g></g><g fill="#2b2b2b" fill-opacity="1"><g transform="translate(206.878865, 159.925537)"><g><path d="M 4.109375 -14.703125 C 5.273438 -14.703125 6.113281 -14.414062 6.625 -13.84375 C 7.132812 -13.269531 7.390625 -12.4375 7.390625 -11.34375 L 7.390625 -10.140625 C 7.390625 -9.328125 7.242188 -8.664062 6.953125 -8.15625 C 6.660156 -7.65625 6.195312 -7.3125 5.5625 -7.125 C 6.238281 -6.925781 6.710938 -6.5625 6.984375 -6.03125 C 7.265625 -5.507812 7.40625 -4.847656 7.40625 -4.046875 L 7.40625 -1.765625 C 7.40625 -1.441406 7.421875 -1.128906 7.453125 -0.828125 C 7.484375 -0.523438 7.566406 -0.25 7.703125 0 L 6.046875 0 C 5.953125 -0.207031 5.882812 -0.429688 5.84375 -0.671875 C 5.800781 -0.921875 5.78125 -1.289062 5.78125 -1.78125 L 5.78125 -4.09375 C 5.78125 -4.914062 5.59375 -5.484375 5.21875 -5.796875 C 4.84375 -6.117188 4.316406 -6.28125 3.640625 -6.28125 L 2.484375 -6.28125 L 2.484375 0 L 0.84375 0 L 0.84375 -14.703125 Z M 3.703125 -7.765625 C 4.359375 -7.765625 4.867188 -7.898438 5.234375 -8.171875 C 5.597656 -8.453125 5.78125 -8.988281 5.78125 -9.78125 L 5.78125 -11.1875 C 5.78125 -11.863281 5.648438 -12.367188 5.390625 -12.703125 C 5.128906 -13.035156 4.691406 -13.203125 4.078125 -13.203125 L 2.484375 -13.203125 L 2.484375 -7.765625 Z M 3.703125 -7.765625 "/></g></g></g><g fill="#2b2b2b" fill-opacity="1"><g transform="translate(222.271922, 159.925537)"><g><path d="M 6.0625 -8.1875 L 6.0625 -6.71875 L 2.484375 -6.71875 L 2.484375 -1.484375 L 6.890625 -1.484375 L 6.890625 0 L 0.84375 0 L 0.84375 -14.703125 L 6.890625 -14.703125 L 6.890625 -13.203125 L 2.484375 -13.203125 L 2.484375 -8.1875 Z M 6.0625 -8.1875 "/></g></g></g><g fill="#2b2b2b" fill-opacity="1"><g transform="translate(161.272904, 182.425536)"><g><path d="M 5.859375 -7.859375 L 5.859375 -6.359375 L 2.484375 -6.359375 L 2.484375 0 L 0.84375 0 L 0.84375 -14.703125 L 6.671875 -14.703125 L 6.671875 -13.203125 L 2.484375 -13.203125 L 2.484375 -7.859375 Z M 5.859375 -7.859375 "/></g></g></g><g fill="#2b2b2b" fill-opacity="1"><g transform="translate(175.531955, 182.425536)"><g><path d="M 0.71875 -11.15625 C 0.71875 -12.289062 0.992188 -13.1875 1.546875 -13.84375 C 2.097656 -14.507812 2.941406 -14.84375 4.078125 -14.84375 C 5.210938 -14.84375 6.054688 -14.507812 6.609375 -13.84375 C 7.171875 -13.1875 7.453125 -12.289062 7.453125 -11.15625 L 7.453125 -3.546875 C 7.453125 -2.429688 7.171875 -1.535156 6.609375 -0.859375 C 6.054688 -0.191406 5.210938 0.140625 4.078125 0.140625 C 2.941406 0.140625 2.097656 -0.191406 1.546875 -0.859375 C 0.992188 -1.535156 0.71875 -2.429688 0.71875 -3.546875 Z M 2.328125 -3.46875 C 2.328125 -2.789062 2.46875 -2.265625 2.75 -1.890625 C 3.039062 -1.523438 3.484375 -1.34375 4.078125 -1.34375 C 4.679688 -1.34375 5.117188 -1.523438 5.390625 -1.890625 C 5.671875 -2.265625 5.8125 -2.789062 5.8125 -3.46875 L 5.8125 -11.234375 C 5.8125 -11.910156 5.671875 -12.429688 5.390625 -12.796875 C 5.117188 -13.171875 4.679688 -13.359375 4.078125 -13.359375 C 3.484375 -13.359375 3.039062 -13.171875 2.75 -12.796875 C 2.46875 -12.429688 2.328125 -11.910156 2.328125 -11.234375 Z M 2.328125 -3.46875 "/></g></g></g><g fill="#2b2b2b" fill-opacity="1"><g transform="translate(190.820014, 182.425536)"><g><path d="M 0.71875 -11.15625 C 0.71875 -12.289062 0.992188 -13.1875 1.546875 -13.84375 C 2.097656 -14.507812 2.941406 -14.84375 4.078125 -14.84375 C 5.210938 -14.84375 6.054688 -14.507812 6.609375 -13.84375 C 7.171875 -13.1875 7.453125 -12.289062 7.453125 -11.15625 L 7.453125 -3.546875 C 7.453125 -2.429688 7.171875 -1.535156 6.609375 -0.859375 C 6.054688 -0.191406 5.210938 0.140625 4.078125 0.140625 C 2.941406 0.140625 2.097656 -0.191406 1.546875 -0.859375 C 0.992188 -1.535156 0.71875 -2.429688 0.71875 -3.546875 Z M 2.328125 -3.46875 C 2.328125 -2.789062 2.46875 -2.265625 2.75 -1.890625 C 3.039062 -1.523438 3.484375 -1.34375 4.078125 -1.34375 C 4.679688 -1.34375 5.117188 -1.523438 5.390625 -1.890625 C 5.671875 -2.265625 5.8125 -2.789062 5.8125 -3.46875 L 5.8125 -11.234375 C 5.8125 -11.910156 5.671875 -12.429688 5.390625 -12.796875 C 5.117188 -13.171875 4.679688 -13.359375 4.078125 -13.359375 C 3.484375 -13.359375 3.039062 -13.171875 2.75 -12.796875 C 2.46875 -12.429688 2.328125 -11.910156 2.328125 -11.234375 Z M 2.328125 -3.46875 "/></g></g></g><g fill="#2b2b2b" fill-opacity="1"><g transform="translate(206.108072, 182.425536)"><g><path d="M 2.984375 0 L 2.984375 -13.203125 L 0.265625 -13.203125 L 0.265625 -14.703125 L 7.328125 -14.703125 L 7.328125 -13.203125 L 4.625 -13.203125 L 4.625 0 Z M 2.984375 0 "/></g></g></g><g fill="#2b2b2b" fill-opacity="1"><g transform="translate(161.904428, 283.119445)"><g><path d="M 2.5 -2.96875 L 1.9375 0 L 0.421875 0 L 3.234375 -14.703125 L 5.609375 -14.703125 L 8.421875 0 L 6.78125 0 L 6.21875 -2.96875 Z M 2.703125 -4.375 L 5.984375 -4.375 L 4.328125 -12.859375 Z M 2.703125 -4.375 "/></g></g></g><g fill="#2b2b2b" fill-opacity="1"><g transform="translate(176.373468, 283.119445)"><g><path d="M 4.28125 -14.703125 C 5.425781 -14.703125 6.269531 -14.375 6.8125 -13.71875 C 7.351562 -13.070312 7.625 -12.179688 7.625 -11.046875 L 7.625 -3.640625 C 7.625 -2.503906 7.351562 -1.613281 6.8125 -0.96875 C 6.269531 -0.320312 5.425781 0 4.28125 0 L 0.84375 0 L 0.84375 -14.703125 Z M 4.265625 -1.484375 C 4.847656 -1.484375 5.28125 -1.660156 5.5625 -2.015625 C 5.851562 -2.378906 6 -2.894531 6 -3.5625 L 6 -11.125 C 6 -11.800781 5.851562 -12.316406 5.5625 -12.671875 C 5.28125 -13.023438 4.835938 -13.203125 4.234375 -13.203125 L 2.484375 -13.203125 L 2.484375 -1.484375 Z M 4.265625 -1.484375 "/></g></g></g><g fill="#2b2b2b" fill-opacity="1"><g transform="translate(190.296499, 283.119445)"><g><path d="M 4.28125 -14.703125 C 5.425781 -14.703125 6.269531 -14.375 6.8125 -13.71875 C 7.351562 -13.070312 7.625 -12.179688 7.625 -11.046875 L 7.625 -3.640625 C 7.625 -2.503906 7.351562 -1.613281 6.8125 -0.96875 C 6.269531 -0.320312 5.425781 0 4.28125 0 L 0.84375 0 L 0.84375 -14.703125 Z M 4.265625 -1.484375 C 4.847656 -1.484375 5.28125 -1.660156 5.5625 -2.015625 C 5.851562 -2.378906 6 -2.894531 6 -3.5625 L 6 -11.125 C 6 -11.800781 5.851562 -12.316406 5.5625 -12.671875 C 5.28125 -13.023438 4.835938 -13.203125 4.234375 -13.203125 L 2.484375 -13.203125 L 2.484375 -1.484375 Z M 4.265625 -1.484375 "/></g></g></g><g fill="#2b2b2b" fill-opacity="1"><g transform="translate(204.219532, 283.119445)"><g><path d="M 2.5 -2.96875 L 1.9375 0 L 0.421875 0 L 3.234375 -14.703125 L 5.609375 -14.703125 L 8.421875 0 L 6.78125 0 L 6.21875 -2.96875 Z M 2.703125 -4.375 L 5.984375 -4.375 L 4.328125 -12.859375 Z M 2.703125 -4.375 "/></g></g></g></svg>