<svg width="559" height="334" viewBox="0 0 559 334" fill="none" xmlns="http://www.w3.org/2000/svg">
<g clip-path="url(#clip0_31_103)">
<mask id="mask0_31_103" style="mask-type:luminance" maskUnits="userSpaceOnUse" x="0" y="0" width="559" height="334">
<path d="M559 0H0V334H559V0Z" fill="white"/>
</mask>
<g mask="url(#mask0_31_103)">
<path d="M400.179 40.3822C328.616 20.3395 295.025 105.34 295.025 105.34C295.025 105.34 336.953 79.8199 376.607 121.3C376.607 121.3 386.619 71.1652 400.179 40.3822Z" fill="#071C1F"/>
<path d="M490.974 88.6726H41.4074C18.5387 88.6726 0 107.199 0 130.053V292.62C0 315.473 18.5387 334 41.4074 334H490.974C513.842 334 532.381 315.473 532.381 292.62V130.053C532.381 107.199 513.842 88.6726 490.974 88.6726Z" fill="#FF5A3C"/>
<path d="M37.2051 139.542V136.771H56.5645V139.542H48.4478V162.566H45.3221V139.542H37.2051ZM61.3885 162.566V136.771H64.5145V148.258H78.2777V136.771H81.4034V162.566H78.2777V151.029H64.5145V162.566H61.3885ZM87.6609 162.566V136.771H103.239V139.542H90.7869V148.258H102.433V151.029H90.7869V159.795H103.441V162.566H87.6609Z" fill="white"/>
<path d="M131.275 137.88C131.37 137.832 131.748 137.832 132.411 137.88C133.239 137.88 133.996 137.951 134.682 138.092C136.149 138.423 137.462 139.038 138.622 139.937C138.811 140.055 138.906 140.102 138.906 140.079C138.929 140.079 139.367 139.724 140.219 139.015C141.165 138.258 141.627 137.891 141.603 137.915C141.792 137.797 142.136 137.797 142.632 137.915C142.751 137.986 142.822 138.104 142.845 138.27C142.869 138.506 142.881 140.043 142.881 142.881C142.881 146.026 142.845 147.645 142.774 147.74L142.632 147.811C142.538 147.858 142.159 147.882 141.497 147.882C140.834 147.882 140.456 147.858 140.361 147.811C140.195 147.693 140.101 147.515 140.077 147.279C139.935 145.766 139.391 144.359 138.444 143.058C137.309 141.521 135.853 140.646 134.079 140.433C132.825 140.268 131.405 140.422 129.82 140.894C127.335 141.604 125.715 143.07 124.957 145.293C124.555 146.475 124.354 148.177 124.354 150.4C124.354 152.032 124.437 153.273 124.603 154.124C125.099 156.867 126.59 158.712 129.075 159.658C130.707 160.296 132.423 160.521 134.221 160.332C134.67 160.308 135.049 160.237 135.357 160.119C136.066 159.859 136.54 159.516 136.776 159.09C136.895 158.759 136.954 158.038 136.954 156.926V155.33H134.398H131.843V154.053V152.777H132.411L136.421 152.848C138.764 152.871 140.763 152.871 142.42 152.848L145.33 152.777H145.72V154.053V155.33H144.301H142.881V158.735C142.881 161.124 142.798 162.377 142.632 162.495C142.467 162.566 142.124 162.507 141.603 162.318C140.325 161.892 139.426 161.526 138.906 161.218L138.622 161.041L138.338 161.289C137.297 162.117 135.842 162.649 133.972 162.885C133.192 162.98 132.162 162.992 130.885 162.921C130.766 162.897 130.672 162.885 130.601 162.885C129.157 162.767 127.773 162.495 126.448 162.069C123.798 161.195 121.739 159.74 120.272 157.707C119.089 156.004 118.356 154.077 118.072 151.925C117.977 151.074 117.977 150.105 118.072 149.017C118.072 148.946 118.072 148.887 118.072 148.84C118.356 146.711 119.089 144.796 120.272 143.094C121.905 140.8 124.283 139.251 127.406 138.447C128.518 138.163 129.808 137.974 131.275 137.88ZM149.209 139.511V138.234H156.556C161.525 138.258 164.423 138.317 165.252 138.412C167.665 138.743 169.605 139.488 171.072 140.646C172.184 141.592 172.894 142.751 173.202 144.122C173.296 144.642 173.296 145.245 173.202 145.931C173.012 146.664 172.717 147.314 172.314 147.882C171.794 148.615 171.131 149.218 170.327 149.691C169.901 149.927 169.333 150.199 168.623 150.507L168.268 150.648L168.552 150.79C169.357 151.311 169.96 151.866 170.362 152.457C170.694 152.883 170.918 153.297 171.037 153.699C171.202 154.053 171.368 154.94 171.534 156.359C171.723 157.801 171.865 158.653 171.96 158.913C172.338 160.142 173.119 160.757 174.302 160.757C174.562 160.757 174.752 160.733 174.87 160.686C175.343 160.284 175.627 159.752 175.722 159.09C175.722 158.83 175.84 158.617 176.077 158.452C176.242 158.381 176.763 158.369 177.638 158.416C177.804 158.416 177.899 158.428 177.922 158.452C178.088 158.546 178.194 158.688 178.242 158.877C178.336 159.09 178.313 159.457 178.171 159.977C177.792 161.372 176.952 162.294 175.651 162.743C175.414 162.814 175.178 162.873 174.941 162.921C174.207 163.039 172.965 163.015 171.214 162.85C167.973 162.519 166.092 161.336 165.571 159.303C165.524 159.161 165.488 159.007 165.465 158.842C165.441 158.676 165.429 157.931 165.429 156.607C165.429 155.165 165.37 154.243 165.252 153.841C164.92 152.8 164.305 152.079 163.406 151.677C163.075 151.535 162.282 151.464 161.028 151.464H160.638H158.757V155.721V160.012H160.673H162.59V161.289V162.566H162.128C162.152 162.566 161.04 162.542 158.792 162.495C156.875 162.471 154.947 162.471 153.007 162.495C150.759 162.542 149.647 162.566 149.671 162.566H149.209V161.289V160.012H151.126H153.042V150.4V140.788H151.126H149.209V139.511ZM163.158 140.824C162.968 140.8 162.14 140.788 160.673 140.788H158.757V145.044V149.301H161.028C162.732 149.277 163.844 149.206 164.364 149.088C164.932 148.97 165.476 148.745 165.997 148.414C166.446 148.059 166.742 147.504 166.884 146.747C167.003 145.943 167.014 144.973 166.92 143.838C166.849 142.751 166.506 141.994 165.89 141.568C165.772 141.497 165.642 141.427 165.5 141.356C164.837 141.072 164.057 140.894 163.158 140.824ZM179.814 139.724V138.447H190.816H201.855V138.589C201.878 138.684 202.067 140.209 202.422 143.164C202.73 146.049 202.907 147.574 202.955 147.74V147.882H201.677H200.399L200.328 147.279C200.115 145.742 199.831 144.571 199.477 143.767C198.743 142.278 197.383 141.391 195.395 141.107C194.756 141.036 193.561 141.001 191.81 141.001H189.574V144.867V148.769H190.213C191.302 148.769 192.094 148.639 192.591 148.378C192.993 148.213 193.289 147.953 193.478 147.598C193.81 147.054 193.975 146.215 193.975 145.08V144.619H195.253H196.531V150.045V155.472H195.253H193.975V155.011C193.975 153.876 193.81 153.037 193.478 152.493C193.289 152.138 192.993 151.878 192.591 151.713C192.094 151.452 191.302 151.322 190.213 151.322H189.574V155.65V160.012H191.881C193.561 160.012 194.508 160 194.721 159.977C197.134 159.811 198.838 159.031 199.831 157.636C199.95 157.494 200.104 157.222 200.293 156.82C200.719 155.992 201.086 154.692 201.393 152.918C201.44 152.446 201.488 152.162 201.535 152.067V151.961H202.813H204.091V152.067C204.067 152.115 203.795 153.841 203.274 157.246C202.754 160.674 202.482 162.412 202.458 162.46V162.566H191.136H179.814V161.289V160.012H181.731H183.647V150.507V141.001H181.731H179.814V139.724ZM219.56 137.844H221.69H221.725C222.033 137.962 222.21 138.092 222.257 138.234L230.776 159.835L230.847 160.012H232.763H234.644V161.289V162.566H234.218L231.166 162.495C229.439 162.471 227.569 162.471 225.558 162.495L222.115 162.566H221.654V161.289V160.012H223.18L224.706 159.977L224.068 158.381L223.429 156.785H219.063C216.153 156.785 214.698 156.796 214.698 156.82L214.059 158.416L213.455 159.977C213.455 160 213.964 160.012 214.982 160.012H216.472V161.289V162.566H216.117L213.491 162.495C211.953 162.471 210.533 162.471 209.232 162.495L206.996 162.566H206.676V161.289V160.012H208.557H210.474L210.545 159.835L219.063 138.234C219.134 138.116 219.3 137.986 219.56 137.844ZM220.767 149.975L219.099 145.718H219.063L215.727 154.231H219.099L222.435 154.195L220.767 149.975ZM238.305 138.837V138.624H250.265H262.262V138.837L262.652 143.342C262.865 146.298 262.983 147.799 263.007 147.846V148.059H261.729C260.878 148.059 260.452 148.047 260.452 148.024C260.452 147.551 260.392 146.936 260.274 146.179C260.132 145.115 259.931 144.24 259.671 143.555C259.316 142.727 258.713 142.112 257.861 141.71C257.506 141.521 257.033 141.379 256.441 141.285C256.228 141.237 255.625 141.202 254.631 141.178H253.247V150.578V160.012H255.98H258.677V161.289V162.566H258.109L253.921 162.495C251.484 162.471 249.059 162.471 246.645 162.495L242.457 162.566H241.889V161.289V160.012H244.622H247.32V150.578V141.178H245.935C244.942 141.202 244.338 141.237 244.125 141.285C243.013 141.497 242.161 141.911 241.57 142.526C241.191 142.904 240.884 143.472 240.647 144.229C240.458 144.914 240.304 145.967 240.186 147.385C240.138 147.787 240.115 148 240.115 148.024C240.115 148.047 239.689 148.059 238.837 148.059H237.559V147.846L237.95 143.342C238.163 140.386 238.281 138.885 238.305 138.837Z" fill="#071C1F"/>
<path d="M384.816 253.155C385.809 253.06 386.768 253.095 387.691 253.261C388.992 253.45 390.222 253.923 391.382 254.68C391.524 254.798 391.63 254.845 391.701 254.822C391.819 254.703 392.127 254.431 392.624 254.006C393.239 253.486 393.559 253.214 393.582 253.19C393.653 253.143 393.819 253.119 394.079 253.119C394.363 253.119 394.541 253.143 394.611 253.19C394.73 253.261 394.801 253.427 394.824 253.687C394.848 254.018 394.86 255.247 394.86 257.375C394.86 260.024 394.777 261.407 394.611 261.525C394.517 261.573 394.174 261.596 393.582 261.596C392.991 261.596 392.648 261.573 392.553 261.525C392.411 261.454 392.316 261.206 392.269 260.78C392.127 260.024 391.902 259.326 391.595 258.688C391.311 258.097 390.92 257.576 390.423 257.127C389.406 256.134 387.986 255.602 386.164 255.531C384.224 255.46 382.994 256.099 382.473 257.446C382.355 257.777 382.296 258.156 382.296 258.581C382.296 259.054 382.379 259.468 382.544 259.823C382.899 260.556 383.538 261.1 384.461 261.454C384.626 261.549 385.537 261.762 387.194 262.093C388.897 262.447 389.844 262.66 390.033 262.731C391.074 262.991 392.009 263.429 392.837 264.044C394.541 265.297 395.57 267.011 395.925 269.187C396.019 269.849 396.019 270.676 395.925 271.669C395.783 272.568 395.511 273.431 395.108 274.259C394.635 275.228 394.008 276.008 393.227 276.6C392.139 277.427 390.826 277.947 389.288 278.16C388.696 278.255 387.785 278.267 386.555 278.196C386.436 278.172 386.342 278.16 386.271 278.16C384.236 277.947 382.603 277.439 381.373 276.635C381.231 276.541 381.125 276.505 381.054 276.529C380.935 276.647 380.628 276.919 380.131 277.344C379.516 277.865 379.196 278.137 379.172 278.16C379.101 278.208 378.936 278.231 378.676 278.231C378.392 278.231 378.214 278.208 378.143 278.16C378.025 278.089 377.954 277.924 377.93 277.664C377.907 277.333 377.895 276.115 377.895 274.01C377.895 271.433 377.918 270.109 377.966 270.038C377.989 269.991 378.037 269.931 378.108 269.861C378.226 269.79 378.569 269.754 379.137 269.754C379.752 269.754 380.107 269.778 380.202 269.825C380.367 269.92 380.45 270.168 380.45 270.57C380.521 271.847 380.971 272.899 381.799 273.727C382.414 274.341 383.266 274.826 384.354 275.181C385.75 275.63 387.146 275.784 388.542 275.642C388.732 275.618 388.897 275.595 389.039 275.571C389.702 275.429 390.246 275.145 390.672 274.72C391.145 274.247 391.453 273.608 391.595 272.804C391.784 271.599 391.453 270.57 390.601 269.719C390.246 269.317 389.785 269.033 389.217 268.867C389.122 268.82 388.176 268.595 386.377 268.193C384.674 267.862 383.704 267.65 383.467 267.555C381.716 267.058 380.344 266.124 379.35 264.753C378.332 263.405 377.847 261.892 377.895 260.213C377.966 258.534 378.463 257.092 379.385 255.886C380.261 254.703 381.539 253.888 383.219 253.438C383.786 253.297 384.319 253.202 384.816 253.155ZM412.594 253.119H414.724H414.759C415.067 253.237 415.244 253.367 415.292 253.509L423.81 275.11L423.881 275.287H425.797H427.678V276.564V277.841H427.252L424.2 277.77C422.473 277.746 420.604 277.746 418.592 277.77L415.15 277.841H414.688V276.564V275.287H416.214L417.741 275.252L417.102 273.656L416.463 272.06H412.097C409.187 272.06 407.732 272.071 407.732 272.095L407.093 273.691L406.49 275.252C406.49 275.275 406.998 275.287 408.016 275.287H409.506V276.564V277.841H409.151L406.525 277.77C404.987 277.746 403.567 277.746 402.266 277.77L400.03 277.841H399.711V276.564V275.287H401.592H403.508L403.579 275.11L412.097 253.509C412.168 253.391 412.334 253.261 412.594 253.119ZM413.801 265.25L412.133 260.993H412.097L408.761 269.506H412.133L415.469 269.47L413.801 265.25ZM430.524 254.786V253.509H430.985C430.961 253.509 432.097 253.533 434.392 253.58C436.356 253.604 438.462 253.604 440.71 253.58L444.578 253.509H445.075V254.786V256.063H442.697H440.284V265.675V275.287H441.81C442.898 275.287 443.549 275.264 443.762 275.216C444.732 275.098 445.608 274.779 446.388 274.259C447.832 273.266 448.743 271.61 449.121 269.293C449.311 268.253 449.405 267.579 449.405 267.271C449.405 267.248 449.831 267.236 450.683 267.236H451.961V267.413C451.913 267.531 451.736 269.234 451.428 272.521C451.073 275.902 450.884 277.616 450.861 277.664V277.841H440.674H430.524V276.564V275.287H432.44H434.357V265.675V256.063H432.44H430.524V254.786ZM455.096 254.999V253.722H466.098H477.136V253.864C477.16 253.959 477.349 255.484 477.704 258.439C478.012 261.324 478.189 262.849 478.237 263.015V263.157H476.959H475.681L475.61 262.554C475.397 261.017 475.113 259.846 474.759 259.042C474.025 257.553 472.664 256.666 470.677 256.382C470.038 256.311 468.843 256.276 467.092 256.276H464.856V260.142V264.044H465.495C466.583 264.044 467.376 263.914 467.873 263.653C468.275 263.488 468.571 263.228 468.76 262.873C469.092 262.329 469.257 261.49 469.257 260.355V259.894H470.535H471.813V265.32V270.747H470.535H469.257V270.286C469.257 269.151 469.092 268.312 468.76 267.768C468.571 267.413 468.275 267.153 467.873 266.988C467.376 266.727 466.583 266.597 465.495 266.597H464.856V270.925V275.287H467.163C468.843 275.287 469.79 275.275 470.003 275.252C472.416 275.086 474.12 274.306 475.113 272.911C475.232 272.769 475.386 272.497 475.575 272.095C476.001 271.267 476.367 269.967 476.675 268.193C476.722 267.721 476.77 267.437 476.817 267.342V267.236H478.095H479.372V267.342C479.349 267.39 479.077 269.116 478.556 272.521C478.036 275.949 477.763 277.687 477.74 277.735V277.841H466.418H455.096V276.564V275.287H457.012H458.929V265.782V256.276H457.012H455.096V254.999Z" fill="#071C1F"/>
<path d="M53.1255 213.234V232.804C53.1255 235.142 53.9199 236.714 55.5085 237.521C56.1728 237.897 56.8948 238.186 57.6747 238.387C58.4833 238.591 59.2488 238.908 59.9711 239.342V242.372H40.7346V239.342C41.341 238.908 42.0198 238.591 42.7707 238.387C43.5506 238.157 44.2729 237.87 44.9372 237.521C46.5258 236.714 47.3199 235.142 47.3199 232.804V197.775L53.1255 213.234ZM48.9664 191.281C48.4752 190.069 48.0277 189.001 47.6234 188.077C46.8724 187.904 46.0925 187.731 45.2835 187.558C44.5039 187.384 43.724 187.211 42.944 187.038C41.2688 186.605 39.9692 186.201 39.0449 185.826V180.847H59.9276L78.6875 229.946L75.568 242.372H68.1162L48.9664 191.281ZM77.4743 216.089L86.3127 180.847H109.188V184.094C108.409 184.411 107.658 184.657 106.936 184.83C106.213 184.974 105.564 185.191 104.986 185.479C103.715 186.114 103.08 187.341 103.08 189.16V234.146C103.08 235.934 103.715 237.146 104.986 237.781C105.564 238.071 106.213 238.302 106.936 238.476C107.658 238.618 108.409 238.851 109.188 239.168V242.372H82.8034V239.168C83.5833 238.851 84.3343 238.618 85.0563 238.476C85.8072 238.302 86.4715 238.071 87.0491 237.781C88.349 237.146 88.9988 235.934 88.9988 234.146V190.155H88.7823L80.4204 223.712L77.4743 216.089ZM142.376 243.238C134.028 242.862 127.342 239.543 122.316 233.28C117.579 227.448 115.211 220.218 115.211 211.588C115.211 202.957 117.536 195.653 122.186 189.679C127.154 183.3 133.74 179.908 141.942 179.504V185.046C136.137 185.97 132.729 191.714 131.718 202.28C131.429 205.31 131.284 208.428 131.284 211.632C131.284 214.806 131.429 217.895 131.718 220.895C132.035 223.869 132.598 226.553 133.407 228.95C135.227 234.146 138.216 237.06 142.376 237.696V243.238ZM156.413 211.588C156.413 194.904 152.875 186.057 145.798 185.046V179.504C154.059 179.937 160.645 183.329 165.555 189.679C170.205 195.683 172.53 202.986 172.53 211.588C172.53 220.159 170.248 227.392 165.685 233.28C160.861 239.484 154.377 242.803 146.232 243.238V237.696C151.806 236.945 155.07 231.347 156.023 220.895C156.283 217.895 156.413 214.792 156.413 211.588ZM225.387 213.45V189.16C225.387 187.37 224.679 186.143 223.264 185.479C222.629 185.162 221.906 184.916 221.098 184.743C220.289 184.541 219.466 184.267 218.628 183.921V180.847H237.865V183.921C237.055 184.267 236.247 184.541 235.438 184.743C234.659 184.916 233.951 185.162 233.316 185.479C231.9 186.143 231.192 187.37 231.192 189.16V222.021L225.387 213.45ZM190.813 200.548V233.064C190.813 235.748 192.402 237.521 195.579 238.387C196.417 238.618 197.211 238.908 197.962 239.253V242.372H178.162V239.253C178.884 238.908 179.636 238.618 180.415 238.387C181.224 238.157 181.961 237.841 182.625 237.436C184.213 236.54 185.008 235.083 185.008 233.064V191.931L190.813 200.548ZM186.871 187.817C185.484 187.558 184.257 187.327 183.188 187.125C180.762 186.721 179.217 186.432 178.552 186.259V180.847H198.699L231.192 228.905V242.372H223.697L186.871 187.817ZM266.415 179.504C269.131 179.937 271.961 181.092 274.907 182.968C275.427 183.314 275.918 183.488 276.38 183.488C276.871 183.488 277.335 183.228 277.767 182.708C278.202 182.16 278.678 181.539 279.195 180.847H283.097V201.845H279.805C278.994 200.979 278.128 199.537 277.205 197.515C276.279 195.467 275.513 193.85 274.907 192.667C274.33 191.454 273.65 190.329 272.872 189.289C271.109 186.98 268.959 185.566 266.415 185.046V179.504ZM249.823 239.729C248.752 239.729 247.859 240.595 247.137 242.327H242.76V219.683H245.664C246.732 220.348 247.729 221.776 248.652 223.969C249.607 226.136 250.414 227.909 251.08 229.296C251.772 230.652 252.609 231.923 253.591 233.105C255.874 235.819 258.861 237.35 262.559 237.696V243.238C259.873 243.063 257.548 242.602 255.584 241.852C253.62 241.074 252.278 240.524 251.556 240.208C250.834 239.889 250.255 239.729 249.823 239.729ZM266.415 237.696C269.216 237.379 271.414 236.454 273.002 234.923C274.62 233.366 275.427 231.447 275.427 229.165C275.427 226.887 274.951 225.081 273.999 223.753C273.073 222.426 271.846 221.256 270.317 220.248C268.784 219.237 267.037 218.327 265.073 217.52C263.109 216.71 261.1 215.888 259.051 215.052C257.001 214.215 254.993 213.32 253.029 212.368C251.065 211.387 249.317 210.231 247.785 208.904C244.378 205.96 242.674 202.221 242.674 197.69C242.674 193.042 244.378 188.957 247.785 185.436C251.597 181.539 256.522 179.562 262.559 179.504V185.046C260.219 185.277 258.329 186.028 256.886 187.298C255.469 188.568 254.762 190.126 254.762 191.974C254.762 193.821 255.224 195.352 256.146 196.564C257.102 197.775 258.344 198.857 259.873 199.812C261.405 200.734 263.153 201.585 265.117 202.366C267.081 203.116 269.074 203.909 271.094 204.748C273.147 205.555 275.152 206.465 277.116 207.473C279.08 208.455 280.828 209.64 282.36 211.026C285.767 214.112 287.471 217.996 287.471 222.672C287.471 228.155 285.738 232.76 282.274 236.484C278.432 240.669 273.147 242.922 266.415 243.238V237.696ZM321.83 243.238C313.481 242.862 306.796 239.543 301.768 233.28C297.033 227.448 294.664 220.218 294.664 211.588C294.664 202.957 296.989 195.653 301.638 189.679C306.607 183.3 313.194 179.908 321.396 179.504V185.046C315.59 185.97 312.182 191.714 311.171 202.28C310.881 205.31 310.739 208.428 310.739 211.632C310.739 214.806 310.881 217.895 311.171 220.895C311.487 223.869 312.052 226.553 312.86 228.95C314.682 234.146 317.669 237.06 321.83 237.696V243.238ZM335.867 211.588C335.867 194.904 332.327 186.057 325.252 185.046V179.504C333.513 179.937 340.097 183.329 345.007 189.679C349.659 195.683 351.984 202.986 351.984 211.588C351.984 220.159 349.7 227.392 345.137 233.28C340.316 239.484 333.83 242.803 325.684 243.238V237.696C331.259 236.945 334.525 231.347 335.477 220.895C335.737 217.895 335.867 214.792 335.867 211.588ZM385.689 243.238C377.343 242.862 370.656 239.543 365.63 233.28C360.895 227.448 358.526 220.218 358.526 211.588C358.526 202.957 360.851 195.653 365.5 189.679C370.469 183.3 377.053 179.908 385.258 179.504V185.046C379.452 185.97 376.044 191.714 375.033 202.28C374.743 205.31 374.598 208.428 374.598 211.632C374.598 214.806 374.743 217.895 375.033 220.895C375.349 223.869 375.914 226.553 376.722 228.95C378.541 234.146 381.531 237.06 385.689 237.696V243.238ZM399.727 211.588C399.727 194.904 396.189 186.057 389.114 185.046V179.504C397.375 179.937 403.959 183.329 408.869 189.679C413.518 195.683 415.846 202.986 415.846 211.588C415.846 220.159 413.563 227.392 408.999 233.28C404.175 239.484 397.692 242.803 389.546 243.238V237.696C395.121 236.945 398.384 231.347 399.339 220.895C399.596 217.895 399.727 214.792 399.727 211.588ZM468.702 213.45V189.16C468.702 187.37 467.993 186.143 466.579 185.479C465.943 185.162 465.221 184.916 464.414 184.743C463.603 184.541 462.781 184.267 461.944 183.921V180.847H481.178V183.921C480.37 184.267 479.563 184.541 478.753 184.743C477.972 184.916 477.265 185.162 476.629 185.479C475.215 186.143 474.508 187.37 474.508 189.16V222.021L468.702 213.45ZM434.127 200.548V233.064C434.127 235.748 435.715 237.521 438.895 238.387C439.732 238.618 440.525 238.908 441.276 239.253V242.372H421.477V239.253C422.199 238.908 422.95 238.618 423.731 238.387C424.538 238.157 425.275 237.841 425.94 237.436C427.529 236.54 428.321 235.083 428.321 233.064V191.931L434.127 200.548ZM430.185 187.817C428.8 187.558 427.57 187.327 426.502 187.125C424.077 186.721 422.53 186.432 421.868 186.259V180.847H442.012L474.508 228.905V242.372H467.011L430.185 187.817Z" fill="white"/>
<path d="M390.327 46.3296C376.828 63.0594 362.77 88.4789 351.865 127.081C351.865 127.081 391.238 110.915 419.498 146.756C419.498 146.756 428.726 108.344 433.473 59.971C419.921 55.5441 401.634 49.8126 390.327 46.3296Z" fill="#FF5A3C"/>
<path d="M529.503 162.071C526.921 132.38 519.71 108.294 510.388 88.8479C498.998 84.6505 481.698 78.2374 468.676 73.2747C485.65 119.575 481.87 156.763 481.87 156.763C481.87 156.763 504.076 146.041 529.503 162.071Z" fill="#FF5A3C"/>
<path d="M328.969 36.9908C322.323 38.5086 289.732 50.3145 289.732 50.3145L274.4 50.4555C274.4 50.4555 259.298 60.871 255.163 75.2758C255.163 75.2758 289.206 77.2 295.062 101.353C295.062 101.353 316.626 64.5556 351.521 38.43C341.444 37.1327 331.995 36.2968 328.969 36.9908Z" fill="#FF5A3C"/>
<path d="M357.818 282.529C359.752 283.09 361.784 281.976 362.346 280.046L438.364 19.0732C438.923 17.1532 441.842 2.01884 439.908 1.45666C437.976 0.894473 431.907 15.1125 431.348 17.0326L355.333 278.003C354.768 279.933 355.886 281.967 357.818 282.529Z" fill="#DB553D"/>
<path d="M439.905 1.45716C439.269 1.27213 437.371 7.91222 436.557 11.4535C434.611 22.0511 435.226 16.7697 434.854 18.0534L358.835 279.023C358.463 280.309 357.419 281.228 356.206 281.53C356.632 281.979 357.167 282.343 357.815 282.529C359.746 283.09 361.781 281.976 362.343 280.046L438.361 19.0737C438.92 17.1537 441.837 2.01934 439.905 1.45716Z" fill="#B33C26"/>
<path d="M331.342 79.9171C331.342 79.9171 373.27 54.3966 412.926 95.8767C412.926 95.8767 465.384 81.5809 485.23 124.018C485.23 124.018 528.796 106.433 558.151 156.735C569.192 100.567 516.439 38.2147 436.496 14.9589C353.368 -9.22333 272.316 18.0417 255.478 75.8533C255.478 75.8533 277.604 39.3654 331.342 79.9171Z" fill="#071C1F"/>
<path d="M436.179 14.3822C364.616 -5.66051 331.025 79.3405 331.025 79.3405C331.025 79.3405 372.953 53.8199 412.607 95.3C412.607 95.3 422.619 45.1652 436.179 14.3822Z" fill="#FF5A3C"/>
<path d="M557.836 156.158C568.705 100.873 517.75 39.577 439.898 15.5012C453.959 20.354 502.282 43.1413 484.911 123.442C484.911 123.442 528.481 105.857 557.836 156.158Z" fill="#FF5A3C"/>
<path opacity="0.1" d="M423.935 57.7891C461.958 68.8501 499.08 74.2612 532.466 74.5405C510.698 48.3141 476.995 26.2554 436.179 14.3821C395.488 2.54461 355.299 3.03496 322.886 13.4029C351.297 31.2095 385.701 46.6666 423.935 57.7891Z" fill="white"/>
<path opacity="0.1" d="M432.108 29.314C455.465 36.1084 477.63 40.3771 496.041 42.0639C478.745 30.4336 458.532 20.8839 436.181 14.3818C413.919 7.90575 391.795 5.11464 371.023 5.62303C387.507 14.1353 408.607 22.4773 432.108 29.314Z" fill="white"/>
<path d="M358.584 258.38C358.584 258.38 368.98 259.042 370.027 263.609C370.497 268.48 365.585 283.01 364.697 286.058C363.807 289.117 362.455 297.089 355.57 302.752C343.94 312.314 319.143 302.229 320.243 287.426C320.039 280.974 327.658 273.49 333.438 280.064C347.442 295.968 354.2 260.408 358.584 258.38Z" fill="#B23C26"/>
<path d="M361.195 262.929C361.195 262.929 351.826 286.903 345.68 289.581C339.519 292.259 328.862 287.379 326.943 281.155C325.118 279.727 321.994 284.326 328.995 290.988C336.008 297.654 346.546 299.377 352.044 290.235C357.537 281.104 363.704 259.941 361.195 262.929Z" fill="white"/>
</g>
</g>
<defs>
<clipPath id="clip0_31_103">
<rect width="559" height="334" fill="white"/>
</clipPath>
</defs>
</svg>
